<svg width="172" height="172" viewBox="0 0 172 172" fill="none" xmlns="http://www.w3.org/2000/svg">
<rect x="0.5" y="0.5" width="171" height="171" rx="85.5" fill="white" stroke="#E5E5E5"/>
<path d="M93.0046 116.52H77.9923C76.0383 116.52 74.4531 118.105 74.4531 120.059C74.4531 122.013 76.0383 123.599 77.9923 123.599H93.0046C94.9587 123.599 96.5438 122.013 96.5438 120.059C96.5438 118.105 94.9587 116.52 93.0046 116.52Z" fill="#444444"/>
<path d="M85.5001 51.1916C87.4542 51.1916 89.0394 49.6063 89.0394 47.652V39.5396C89.0394 37.5853 87.4542 36 85.5001 36C83.5461 36 81.9609 37.5853 81.9609 39.5396V47.652C81.9609 49.6063 83.5461 51.1916 85.5001 51.1916Z" fill="#444444"/>
<path d="M127.462 74.4824H119.348C117.394 74.4824 115.809 76.0677 115.809 78.022C115.809 79.9763 117.394 81.5616 119.348 81.5616H127.462C129.416 81.5616 131.001 79.9763 131.001 78.022C131.001 76.0677 129.416 74.4824 127.462 74.4824Z" fill="#444444"/>
<path d="M116.771 65.711L123.497 61.1738C125.118 60.0805 125.544 57.8829 124.451 56.2621C123.357 54.6412 121.16 54.2148 119.54 55.3082L112.814 59.8454C111.193 60.9387 110.767 63.1363 111.86 64.7571C112.543 65.7712 113.658 66.3178 114.795 66.3178C115.476 66.3178 116.164 66.121 116.771 65.711Z" fill="#444444"/>
<path d="M100.933 54.0757C101.43 54.3162 101.958 54.431 102.474 54.431C103.786 54.431 105.049 53.6958 105.661 52.4357L109.203 45.1351C110.056 43.3776 109.323 41.2593 107.563 40.4065C105.806 39.5538 103.688 40.2863 102.835 42.0465L99.2932 49.3471C98.4405 51.1046 99.173 53.2229 100.933 54.0757Z" fill="#444444"/>
<path d="M125.847 95.2955L118.219 92.5349C116.383 91.8707 114.355 92.8219 113.688 94.6587C113.024 96.4954 113.975 98.5263 115.812 99.1904L123.439 101.951C123.836 102.096 124.243 102.164 124.642 102.164C126.09 102.164 127.449 101.268 127.968 99.8273C128.632 97.9905 127.681 95.9597 125.844 95.2955H125.847Z" fill="#444444"/>
<path d="M51.6507 81.5587C53.6048 81.5587 55.1899 79.9734 55.1899 78.0191C55.1899 76.0648 53.6048 74.4795 51.6507 74.4795H43.5392C41.5851 74.4795 40 76.0648 40 78.0191C40 79.9734 41.5851 81.5587 43.5392 81.5587H51.6507Z" fill="#444444"/>
<path d="M58.1876 59.8457L51.4617 55.3084C49.841 54.2151 47.641 54.6442 46.5505 56.2623C45.4573 57.8832 45.8864 60.0807 47.5043 61.174L54.2302 65.7113C54.8369 66.1213 55.5256 66.3181 56.2061 66.3181C57.3431 66.3181 58.4581 65.7714 59.1414 64.7574C60.2346 63.1365 59.8055 60.939 58.1876 59.8457Z" fill="#444444"/>
<path d="M65.3386 52.4353C65.9508 53.6953 67.2107 54.4306 68.5252 54.4306C69.0418 54.4306 69.5692 54.3158 70.0666 54.0752C71.8239 53.2224 72.5591 51.1041 71.7064 49.3466L68.1645 42.046C67.3118 40.2885 65.1965 39.5533 63.4364 40.4061C61.6791 41.2589 60.944 43.3771 61.7967 45.1347L65.3386 52.4353Z" fill="#444444"/>
<path d="M52.7832 92.5352L45.1555 95.2958C43.3189 95.96 42.3678 97.9881 43.0319 99.8276C43.5539 101.268 44.9122 102.165 46.358 102.165C46.757 102.165 47.1642 102.096 47.5605 101.951L55.1882 99.1907C57.0248 98.5266 57.9759 96.4985 57.3118 94.659C56.6476 92.8195 54.6143 91.871 52.7805 92.5352H52.7832Z" fill="#444444"/>
<path d="M89.2924 128.921H81.7111C79.757 128.921 78.1719 130.506 78.1719 132.461C78.1719 134.415 79.757 136 81.7111 136H89.2924C91.2464 136 92.8316 134.415 92.8316 132.461C92.8316 130.506 91.2464 128.921 89.2924 128.921Z" fill="#444444"/>
<path d="M85.4985 56.9697C70.53 56.9697 60.8471 65.5413 60.8061 78.8114C60.3278 90.0234 64.6404 95.7742 68.1086 100.396C70.3797 103.422 72.1725 105.814 72.6699 109.361C72.9186 111.13 74.4327 112.409 76.1681 112.409C76.3321 112.409 76.4988 112.398 76.6628 112.373C78.5978 112.103 79.9479 110.313 79.6746 108.377C78.923 103.023 76.3021 99.527 73.7659 96.1486C70.5382 91.8437 67.4882 87.7793 67.8763 79.0492C67.8763 78.9973 67.879 78.9426 67.879 78.8907C67.879 65.1177 81.3608 64.0462 85.4931 64.0462C89.6253 64.0462 103.11 65.1177 103.11 78.8907C103.11 78.9426 103.11 78.9973 103.113 79.0492C103.503 87.7793 100.453 91.8437 97.223 96.1486C94.6868 99.5297 92.0659 103.023 91.3143 108.377C91.0438 110.313 92.3911 112.103 94.3261 112.373C94.4928 112.398 94.6568 112.409 94.8207 112.409C96.5562 112.409 98.073 111.13 98.3189 109.361C98.8163 105.814 100.609 103.422 102.88 100.396C106.348 95.7742 110.661 90.0234 110.183 78.8114C110.145 65.5413 100.462 56.9697 85.4903 56.9697H85.4985Z" fill="#444444"/>
</svg>
